<svg width="149" height="14" viewBox="0 0 149 14" fill="none" xmlns="http://www.w3.org/2000/svg">
<path d="M2.82774 13V8.28516H7.70029V6.30127H2.82774V3.08887H8.16514V1.02197H0.3209V13H2.82774ZM12.7106 11.3896C11.8889 11.3896 11.341 10.9746 11.341 10.3105C11.341 9.67969 11.8557 9.27295 12.7605 9.20654L14.6364 9.09033V9.73779C14.6364 10.7007 13.7648 11.3896 12.7106 11.3896ZM11.9138 13.1411C13.0261 13.1411 14.1301 12.585 14.6281 11.6387H14.6779V13H17.0188V6.88232C17.0188 5.08936 15.5329 3.91064 13.2502 3.91064C10.8928 3.91064 9.42354 5.09766 9.33223 6.82422H11.5485C11.6647 6.16846 12.2375 5.72021 13.1423 5.72021C14.0554 5.72021 14.6364 6.20166 14.6364 7.03174V7.62109L12.3952 7.75391C10.1789 7.88672 8.93379 8.82471 8.93379 10.4434C8.93379 12.0454 10.2204 13.1411 11.9138 13.1411ZM18.8416 13H21.2654V4.10156H18.8416V13ZM20.0452 2.89795C20.7508 2.89795 21.3069 2.3335 21.3069 1.65283C21.3069 0.963867 20.7508 0.407715 20.0452 0.407715C19.3396 0.407715 18.7835 0.963867 18.7835 1.65283C18.7835 2.3335 19.3396 2.89795 20.0452 2.89795ZM23.1547 13H25.5785V1.02197H23.1547V13ZM31.4189 5.70361C32.498 5.70361 33.2368 6.48389 33.2866 7.62109H29.5098C29.5928 6.50879 30.3564 5.70361 31.4189 5.70361ZM33.3198 10.2773C33.0957 10.958 32.415 11.3979 31.5269 11.3979C30.29 11.3979 29.4849 10.5264 29.4849 9.25635V9.10693H35.6191V8.36816C35.6191 5.66211 33.9839 3.91064 31.394 3.91064C28.7627 3.91064 27.1025 5.75342 27.1025 8.59229C27.1025 11.4395 28.7461 13.1909 31.4854 13.1909C33.6851 13.1909 35.2788 12.0205 35.5444 10.2773H33.3198ZM40.3888 13.1411C41.7003 13.1411 42.7296 12.4521 43.1612 11.4727H43.2027V13H45.5934V1.02197H43.1695V5.62891H43.1197C42.6881 4.64111 41.692 3.96045 40.4054 3.96045C38.1725 3.96045 36.7613 5.71191 36.7613 8.53418C36.7613 11.3813 38.1642 13.1411 40.3888 13.1411ZM41.2105 5.90283C42.4142 5.90283 43.1861 6.93213 43.1861 8.55078C43.1861 10.1777 42.4142 11.1904 41.2105 11.1904C39.9903 11.1904 39.2433 10.186 39.2433 8.55078C39.2433 6.92383 39.9903 5.90283 41.2105 5.90283ZM51.6546 2.05127V4.10156H50.4012V5.92773H51.6546V10.6011C51.6546 12.3359 52.4681 13.0332 54.5599 13.0332C55.0496 13.0332 55.4646 12.9917 55.7137 12.9336V11.1489C55.5643 11.1738 55.3401 11.1904 55.1243 11.1904C54.4104 11.1904 54.0784 10.8667 54.0784 10.186V5.92773H55.722V4.10156H54.0784V2.05127H51.6546ZM61.2138 13.1909C63.9032 13.1909 65.6215 11.4727 65.6215 8.54248C65.6215 5.65381 63.8783 3.91064 61.2138 3.91064C58.5492 3.91064 56.8061 5.66211 56.8061 8.54248C56.8061 11.4644 58.5243 13.1909 61.2138 13.1909ZM61.2138 11.3398C60.0185 11.3398 59.2631 10.3354 59.2631 8.55078C59.2631 6.78271 60.0351 5.76172 61.2138 5.76172C62.3925 5.76172 63.1562 6.78271 63.1562 8.55078C63.1562 10.3354 62.4008 11.3398 61.2138 11.3398ZM78.6222 10.9248H73.3844V1.02197H70.8775V13H78.6222V10.9248ZM84.0642 13.1909C86.7536 13.1909 88.4719 11.4727 88.4719 8.54248C88.4719 5.65381 86.7287 3.91064 84.0642 3.91064C81.3996 3.91064 79.6564 5.66211 79.6564 8.54248C79.6564 11.4644 81.3747 13.1909 84.0642 13.1909ZM84.0642 11.3398C82.8689 11.3398 82.1135 10.3354 82.1135 8.55078C82.1135 6.78271 82.8855 5.76172 84.0642 5.76172C85.2429 5.76172 86.0065 6.78271 86.0065 8.55078C86.0065 10.3354 85.2512 11.3398 84.0642 11.3398ZM93.3743 11.3896C92.5525 11.3896 92.0047 10.9746 92.0047 10.3105C92.0047 9.67969 92.5193 9.27295 93.4241 9.20654L95.3001 9.09033V9.73779C95.3001 10.7007 94.4285 11.3896 93.3743 11.3896ZM92.5774 13.1411C93.6898 13.1411 94.7938 12.585 95.2918 11.6387H95.3416V13H97.6824V6.88232C97.6824 5.08936 96.1966 3.91064 93.9139 3.91064C91.5564 3.91064 90.0872 5.09766 89.9959 6.82422H92.2122C92.3284 6.16846 92.9012 5.72021 93.806 5.72021C94.719 5.72021 95.3001 6.20166 95.3001 7.03174V7.62109L93.0589 7.75391C90.8426 7.88672 89.5975 8.82471 89.5975 10.4434C89.5975 12.0454 90.8841 13.1411 92.5774 13.1411ZM102.767 13.1411C104.079 13.1411 105.108 12.4521 105.54 11.4727H105.581V13H107.972V1.02197H105.548V5.62891H105.498C105.067 4.64111 104.071 3.96045 102.784 3.96045C100.551 3.96045 99.14 5.71191 99.14 8.53418C99.14 11.3813 100.543 13.1411 102.767 13.1411ZM103.589 5.90283C104.793 5.90283 105.565 6.93213 105.565 8.55078C105.565 10.1777 104.793 11.1904 103.589 11.1904C102.369 11.1904 101.622 10.186 101.622 8.55078C101.622 6.92383 102.369 5.90283 103.589 5.90283ZM113.593 1.02197V13H118.167C121.761 13 123.878 10.7671 123.878 6.96533C123.878 3.16357 121.761 1.02197 118.167 1.02197H113.593ZM116.1 3.08887H117.868C120.076 3.08887 121.321 4.4668 121.321 6.97363C121.321 9.56348 120.109 10.9248 117.868 10.9248H116.1V3.08887ZM128.888 11.3896C128.067 11.3896 127.519 10.9746 127.519 10.3105C127.519 9.67969 128.033 9.27295 128.938 9.20654L130.814 9.09033V9.73779C130.814 10.7007 129.943 11.3896 128.888 11.3896ZM128.092 13.1411C129.204 13.1411 130.308 12.585 130.806 11.6387H130.856V13H133.196V6.88232C133.196 5.08936 131.711 3.91064 129.428 3.91064C127.071 3.91064 125.601 5.09766 125.51 6.82422H127.726C127.842 6.16846 128.415 5.72021 129.32 5.72021C130.233 5.72021 130.814 6.20166 130.814 7.03174V7.62109L128.573 7.75391C126.357 7.88672 125.112 8.82471 125.112 10.4434C125.112 12.0454 126.398 13.1411 128.092 13.1411ZM135.625 2.05127V4.10156H134.372V5.92773H135.625V10.6011C135.625 12.3359 136.439 13.0332 138.531 13.0332C139.02 13.0332 139.435 12.9917 139.684 12.9336V11.1489C139.535 11.1738 139.311 11.1904 139.095 11.1904C138.381 11.1904 138.049 10.8667 138.049 10.186V5.92773H139.693V4.10156H138.049V2.05127H135.625ZM144.587 11.3896C143.765 11.3896 143.217 10.9746 143.217 10.3105C143.217 9.67969 143.732 9.27295 144.637 9.20654L146.513 9.09033V9.73779C146.513 10.7007 145.641 11.3896 144.587 11.3896ZM143.79 13.1411C144.902 13.1411 146.006 12.585 146.504 11.6387H146.554V13H148.895V6.88232C148.895 5.08936 147.409 3.91064 145.126 3.91064C142.769 3.91064 141.3 5.09766 141.208 6.82422H143.425C143.541 6.16846 144.114 5.72021 145.018 5.72021C145.932 5.72021 146.513 6.20166 146.513 7.03174V7.62109L144.271 7.75391C142.055 7.88672 140.81 8.82471 140.81 10.4434C140.81 12.0454 142.097 13.1411 143.79 13.1411Z" fill="#EC5757"/>
</svg>
